<svg width="820" height="403" viewBox="0 0 820 403" fill="none" xmlns="http://www.w3.org/2000/svg">
<g clip-path="url(#clip0_440_21626)">
<path d="M456.337 113.528V108.786C456.337 75.8475 456.379 42.9054 456.463 9.95917C456.463 3.38174 457.128 1.92706 463.65 1.26923C470.599 0.592548 477.597 0.592548 484.547 1.26923C490.554 1.8639 491.52 3.71065 491.52 9.83244V279.736C491.52 284.479 490.617 286.288 485.964 286.629C479.143 287.011 472.304 286.93 465.494 286.389C461.982 286.187 460.477 283.619 460.477 280.065C460.539 272.779 460.477 265.505 460.477 258.22L459.485 257.865C458.532 258.751 457.566 259.611 456.626 260.509C444.66 272.007 431.791 282.278 415.635 287.009C388.994 294.801 356.972 289.893 337.292 266.327C327.258 254.336 321.802 240.207 318.867 225.016C314.025 199.908 313.975 174.814 320.283 149.957C326.831 124.178 339.813 102.865 365.438 92.7709C396.406 80.5647 424.891 85.5357 449.764 108.469C451.507 110.088 453.302 111.667 455.082 113.25C455.309 113.414 455.56 113.376 456.337 113.528ZM456.439 188.02V153.954C456.513 152.233 456.004 150.538 454.996 149.147C447.269 141.457 439.807 133.412 431.365 126.582C426.003 122.059 419.706 118.803 412.935 117.052C406.164 115.301 399.09 115.1 392.231 116.462C375.7 119.536 365.35 130.376 359.544 145.302C348.143 174.395 349.021 204.082 359.431 233.327C363.269 244.129 370.444 253.059 381.218 257.739C395.429 263.924 409.64 262.799 423.161 255.36C435.291 248.656 444.823 238.803 453.854 228.418C454.776 227.414 455.49 226.234 455.956 224.948C456.421 223.663 456.627 222.297 456.563 220.93C456.363 209.977 456.439 198.997 456.439 188.02Z" fill="#FE0000"/>
<path d="M680.192 195.379C680.317 209.546 681.559 222.816 687.78 235.034C696.687 252.527 712.013 260.167 730.577 262.28C754.181 264.974 776.685 260.357 798.447 251.299C808.97 246.923 811.629 248.769 811.867 260.217C812.131 272.866 810.926 275.484 799.587 279.608C770.639 290.133 740.875 293.763 710.533 287.39C678.825 280.711 657.765 261.649 649.148 229.913C641.622 202.085 641.321 173.878 650.541 146.353C662.944 109.279 691.844 88.2314 730.815 86.7513C745.591 86.1821 760.141 87.5715 773.888 93.5313C798.848 104.346 812.896 124.003 817.638 150.452C819.344 159.951 819.682 169.754 819.983 179.43C820.335 190.688 815.429 195.368 804.292 195.368H685.136L680.192 195.379ZM680.543 170.537H753.681C762.95 170.537 772.219 170.461 781.489 170.537C784.06 170.537 785.252 169.828 784.938 167.109C784.687 164.579 784.838 162.049 784.574 159.519C782.994 144.581 778.228 131.198 765.672 121.889C755.475 114.299 743.659 112.655 731.417 113.034C698.429 113.983 680.543 142.431 680.543 170.537V170.537Z" fill="#FE0000"/>
<path d="M31.4577 119.852C38.1679 113.983 43.7625 108.557 49.8956 103.826C72.1718 86.6232 96.9075 81.8166 123.56 91.0758C145.598 98.6654 157.777 115.488 161.991 137.991C163.854 148.428 164.802 159.009 164.826 169.613C165.152 205.84 164.952 242.067 164.952 278.294C164.952 284.467 163.935 286.427 158.015 286.906C150.685 287.461 143.321 287.389 136.002 286.691C130.985 286.236 130.007 284.389 130.007 279.268V175.14C130.007 165.021 129.593 155.003 126.858 145.137C117.978 112.984 86.545 110.731 67.4169 122.052C55.0368 129.389 45.1534 139.533 36.0597 150.487C35.1064 151.651 35.0312 153.789 35.0312 155.547C34.9726 196.319 34.9475 237.086 34.9559 277.85C34.9559 284.781 33.8396 286.704 27.029 287.084C19.6848 287.323 12.3329 287.095 5.01718 286.4C1.54293 286.161 0 283.72 0 280.077C0.0501569 219.109 0.0501569 158.141 0 97.1726C0 93.3778 1.65558 90.7596 5.19286 90.532C12.1536 90.0683 19.1355 90.0219 26.1018 90.393C29.7143 90.5956 31.6208 93.2137 31.5203 97.2616C31.3573 104.521 31.4577 111.807 31.4577 119.852Z" fill="#FE0000"/>
<path d="M591.5 143.834V278.622C591.5 284.415 590.547 286.3 584.978 286.717C577.4 287.24 569.793 287.168 562.225 286.502C557.559 286.123 556.568 284.238 556.568 279.609V7.75683C556.568 2.69724 557.96 0.648299 563.091 0.333741C570.438 -0.108968 577.806 -0.108968 585.154 0.333741C590.058 0.624513 591.513 2.86374 591.513 7.92334L591.5 143.834Z" fill="#FE0000"/>
<path d="M233.161 208.155C223.879 217.085 215.964 225.864 211.838 237.133C207.937 247.683 206.745 258.7 209.856 269.82C210.408 271.768 210.458 273.614 208.138 273.868C207.247 273.969 205.542 272.501 205.303 271.489C202.988 261.734 203.165 251.546 205.818 241.879C208.597 231.912 213.766 222.79 220.869 215.316C224.431 211.521 228.646 208.409 232.321 204.741C233.337 203.521 233.881 201.971 233.851 200.377C233.726 193.193 233.387 186.008 233.048 178.874C231.978 156.561 230.899 134.249 229.813 111.936C228.659 88.5016 227.479 65.0589 226.274 41.6077C226.036 36.8118 225.019 36.4464 220.806 38.4686C207.912 44.6413 194.729 49.9412 180.142 50.3968C178.143 50.409 176.196 51.0356 174.56 52.1931C165.879 59.1635 156.204 64.7713 145.862 68.8266C134.711 73.3297 123.284 76.3399 111.256 76.0996C105.06 75.9856 98.8759 74.6322 92.7302 73.5696C91.9022 73.4178 91.3755 71.4952 90.6968 70.3949C91.8005 69.9647 93.0425 68.9402 93.9831 69.1301C108.906 72.9301 124.642 71.8266 138.899 65.9804C147.68 62.4641 156.083 58.0873 164.601 53.9763C166.52 52.8105 168.348 51.4997 170.07 50.0552C166.809 48.5378 164.214 47.2726 161.566 46.096C153.438 42.5165 147.029 34.3322 147.844 24.327C148.446 17.1045 153.977 9.57846 160.876 7.36465C167.499 5.22713 174.861 7.80717 179.891 13.1834C183.202 16.901 185.289 21.5632 185.862 26.5271C186.435 31.4909 185.467 36.5118 183.091 40.8973C182.6 42.1086 182.296 43.3882 182.188 44.6921C183.442 44.9452 184.884 45.6916 186.013 45.3893C193.125 43.5028 200.237 41.5945 207.236 39.2926C212.09 37.7116 216.694 35.3587 221.535 33.715C224.633 32.6524 225.886 31.0714 225.712 27.6559C225.436 22.1788 224.909 16.6513 227.945 11.4527C228.945 9.62274 230.425 8.10575 232.224 7.06791C234.022 6.03006 236.069 5.5114 238.14 5.56876C242.455 5.45475 246.644 6.94757 248.351 11.248C249.844 15.1891 250.773 19.3247 251.11 23.5302C251.423 27.0338 252.176 28.5898 256.127 28.8174C270.426 29.4736 283.282 34.7751 295.512 41.9722C304.215 46.9253 311.723 53.7589 317.498 61.983C326.002 74.2906 328.197 88.0401 326.567 102.662C324.246 123.634 314.024 140.61 298.671 154.055C284.397 166.59 269.158 178.088 253.805 189.219C250.042 191.964 249.189 194.431 249.151 198.339C248.69 258.042 248.193 317.75 247.659 377.461C247.659 384.773 247.483 392.096 247.195 399.42C247.195 400.685 246.128 401.799 245.552 402.999C244.849 401.798 243.607 400.621 243.545 399.382C242.894 387.289 242.516 375.172 241.902 363.079C239.711 319.086 237.482 275.101 235.216 231.125C234.903 224.952 234.639 218.78 234.251 212.607C234.006 211.096 233.642 209.607 233.161 208.155V208.155ZM249.68 186.262C252.59 184.44 254.697 183.289 256.616 181.885C267.089 174.156 277.814 166.706 287.861 158.508C299.391 149.222 308.734 137.471 315.217 124.103C318.888 116.819 321.35 108.978 322.504 100.89C324.163 88.1288 321.032 75.2029 313.724 64.6508C307.715 55.4453 299.298 48.0951 289.405 43.413C279.284 38.4669 268.451 35.167 257.308 33.6354C251.4 32.9272 251.161 32.7742 251.099 38.7963C250.621 81.0532 250.152 123.318 249.693 165.592C249.605 172.031 249.68 178.354 249.68 186.262ZM166.37 11.83C163.218 11.6032 160.096 12.5686 157.612 14.5377C155.129 16.5069 153.462 19.3385 152.936 22.4803C150.704 32.7639 162.344 45.9947 172.855 45.0083C173.461 44.9475 174.049 44.7638 174.584 44.4681C175.118 44.1725 175.588 43.7711 175.965 43.2879C179.675 37.3965 181.183 30.365 180.217 23.4543C179.806 20.1052 178.145 17.0397 175.573 14.8807C173.001 12.7216 169.711 11.6308 166.37 11.83H166.37ZM234.101 44.5404V51.6871C234.101 54.5078 235.042 56.8225 238.266 56.7467C241.489 56.6708 242.443 54.4193 242.493 51.6112V39.1896C242.493 33.8643 242.493 34.016 237.476 34.0287C234.967 34.0287 234.089 35.0659 234.089 37.3429L234.101 44.5404ZM234.478 31.0066C237.789 29.4892 241.062 29.0335 242.066 27.2118C243.258 25.0993 242.505 21.8614 242.595 19.1165C242.607 18.8679 242.607 18.6187 242.595 18.3701C242.494 16.0173 240.977 14.7398 238.957 15.0814C237.39 15.3471 234.856 16.5988 234.73 17.611C234.379 22.0668 234.283 26.5392 234.442 31.0062L234.478 31.0066Z" fill="black"/>
</g>
<defs>
<clipPath id="clip0_440_21626">
<rect width="820" height="403" fill="white"/>
</clipPath>
</defs>
</svg>
