<svg width="412" height="128" viewBox="0 0 412 128" fill="none" xmlns="http://www.w3.org/2000/svg">
<path fill-rule="evenodd" clip-rule="evenodd" d="M201.984 31.4596C192.727 21.9175 183.627 13.7807 171.944 9.53833C161.008 5.52802 149.587 4.30302 138.06 7.50098C136.04 8.06833 134.126 8.11976 133.864 5.73456C133.759 4.81894 135.28 3.06547 136.329 2.82047C146.442 0.439805 157.003 0.62179 167.025 3.34936C177.356 6.20618 186.813 11.5206 194.561 18.8233C198.495 22.4853 201.72 26.818 205.523 30.5962C206.788 31.6413 208.395 32.2002 210.047 32.1695C217.494 32.0407 224.943 31.6925 232.338 31.3442C255.468 30.2438 278.599 29.1349 301.729 28.0175C326.022 26.8312 350.324 25.6188 374.634 24.3801C379.606 24.1351 379.985 23.0899 377.888 18.7581L372.357 5.68531C371.598 3.28357 370.535 -1.15964 372.357 0.281401C372.357 1.72249 375.475 3.89936 377.034 4.80767C378.673 9.79798 381.112 14.5303 382.816 19.5077C383.918 22.6927 385.557 23.9812 389.097 23.8019C394.775 23.518 400.505 22.9766 405.894 26.0972C407.791 27.1256 409.364 28.6476 410.44 30.4964C411.516 32.3453 412.053 34.4497 411.994 36.5791C412.112 41.015 410.564 45.3218 406.106 47.0756C402.021 48.6112 397.734 49.5664 393.374 49.9124C389.742 50.2347 388.129 51.0086 387.893 55.0703C387.213 69.7704 381.717 82.9878 374.256 95.5606C369.122 104.507 362.038 112.226 353.512 118.163C340.754 126.906 326.5 129.163 311.342 127.487C289.602 125.101 272.005 114.592 258.066 98.8083C245.072 84.1334 233.153 68.4667 221.614 52.683C218.768 48.8145 216.211 47.9377 212.16 47.8988C150.269 47.425 88.3734 46.9136 26.4737 46.3645C18.8946 46.3645 11.3024 46.1838 3.71063 45.8874C2.39949 45.8874 1.24481 44.7912 -1.00066e-05 44.1983C1.24566 43.4763 2.46582 42.1995 3.75018 42.1351C16.2855 41.4661 28.8473 41.0777 41.383 40.446C86.9885 38.1936 132.585 35.9026 178.173 33.573C184.571 33.2507 190.969 32.9798 197.369 32.5801C198.935 32.3287 200.479 31.954 201.984 31.4596ZM229.217 55.5733C227.761 53.6003 226.568 51.4342 224.68 48.4424C232.877 48.4424 239.432 48.365 246.107 48.4553C289.929 48.928 333.743 49.41 377.549 49.9011C383.791 49.9655 383.633 50.2105 382.899 56.2841C381.311 67.7403 377.89 78.8774 372.763 89.2822C367.909 99.4533 360.29 108.106 350.747 114.284C339.808 121.796 326.408 125.016 313.179 123.31C304.796 122.124 296.667 119.593 289.116 115.818C275.258 109.154 263.077 99.5486 253.45 87.6947C244.952 77.3658 237.229 66.3403 229.217 55.5733ZM364.186 32.4266L371.594 32.4266L379.055 32.4141C381.416 32.4141 382.491 33.3163 382.491 35.8955C382.491 36.0384 382.492 36.1774 382.492 36.3125C382.508 41.0535 382.508 41.0535 377.141 41.0535L364.264 41.0535C361.353 41.0021 359.019 40.0221 358.941 36.7079C358.862 33.3937 361.261 32.4266 364.186 32.4266ZM389.558 40.6149C388.284 39.919 387.654 38.1613 386.897 36.0463C386.531 35.0255 386.136 33.9215 385.624 32.8134L385.624 32.777C390.255 32.6134 394.891 32.7124 399.51 33.0734C400.56 33.2022 401.857 35.8073 402.133 37.419C402.487 39.4948 401.162 41.0552 398.723 41.1584C398.466 41.1713 398.207 41.1713 397.95 41.1584C397.089 41.1305 396.183 41.1817 395.276 41.233C393.182 41.3512 391.086 41.4696 389.558 40.6149Z" fill="#C9C9C9"/>
</svg>
