<svg width="222" height="109" viewBox="0 0 222 109" fill="none" xmlns="http://www.w3.org/2000/svg">
<path d="M123.545 30.706V29.4234C123.545 20.5146 123.556 11.6047 123.579 2.6937C123.579 0.914695 123.759 0.521245 125.525 0.343322C127.406 0.160299 129.301 0.160299 131.182 0.343322C132.809 0.504163 133.07 1.00366 133.07 2.65943V75.6605C133.07 76.9435 132.826 77.4327 131.566 77.5251C129.719 77.6282 127.868 77.6065 126.024 77.4601C125.073 77.4054 124.666 76.7109 124.666 75.7495C124.683 73.7789 124.666 71.8117 124.666 69.8411L124.397 69.7453C124.139 69.9847 123.878 70.2174 123.623 70.4603C120.383 73.5702 116.899 76.3482 112.526 77.6277C105.313 79.7352 96.6437 78.4077 91.3157 72.034C88.5991 68.7906 87.1219 64.9692 86.3273 60.8603C85.0166 54.0694 85.0029 47.2823 86.7108 40.5591C88.4834 33.5867 91.998 27.822 98.9356 25.0919C107.32 21.7905 115.031 23.135 121.765 29.3377C122.237 29.7756 122.723 30.2029 123.205 30.6308C123.267 30.6753 123.334 30.665 123.545 30.706ZM123.572 50.854V41.6402C123.592 41.1748 123.455 40.7163 123.182 40.3402C121.09 38.2601 119.07 36.0842 116.784 34.2368C115.333 33.0135 113.628 32.1328 111.795 31.6592C109.961 31.1857 108.046 31.1312 106.189 31.4998C101.714 32.3312 98.9118 35.2631 97.34 39.3001C94.2532 47.1689 94.4909 55.1984 97.3094 63.1082C98.3485 66.03 100.291 68.4452 103.208 69.7111C107.055 71.3841 110.903 71.0796 114.563 69.0677C117.847 67.2544 120.428 64.5894 122.873 61.7805C123.122 61.5089 123.316 61.1899 123.442 60.8422C123.568 60.4944 123.624 60.1249 123.606 59.7552C123.552 56.7927 123.572 53.823 123.572 50.854Z" fill="#FE0000"/>
<path d="M184.149 52.8446C184.183 56.6764 184.519 60.2654 186.204 63.57C188.615 68.3015 192.764 70.3679 197.79 70.9393C204.181 71.668 210.273 70.4193 216.165 67.9694C219.014 66.7856 219.734 67.2851 219.798 70.3813C219.869 73.8025 219.543 74.5107 216.474 75.6261C208.636 78.4727 200.578 79.4546 192.364 77.7307C183.779 75.9243 178.078 70.7687 175.745 62.1849C173.707 54.6582 173.626 47.029 176.122 39.5844C179.48 29.5569 187.304 23.8641 197.855 23.4638C201.855 23.3098 205.794 23.6856 209.516 25.2976C216.273 28.2227 220.077 33.5393 221.36 40.6929C221.822 43.2623 221.914 45.9137 221.995 48.5308C222.091 51.5757 220.762 52.8416 217.747 52.8416H185.488L184.149 52.8446ZM184.244 46.1253H204.045C206.555 46.1253 209.064 46.1048 211.574 46.1253C212.27 46.1253 212.592 45.9338 212.507 45.1982C212.44 44.5139 212.48 43.8298 212.409 43.1455C211.981 39.105 210.691 35.4855 207.292 32.9675C204.531 30.9147 201.332 30.47 198.018 30.5726C189.087 30.8293 184.244 38.5235 184.244 46.1253Z" fill="#FE0000"/>
<path d="M8.5166 32.4168C10.3333 30.8293 11.8479 29.3617 13.5083 28.0822C19.5392 23.4293 26.2359 22.1293 33.4517 24.6336C39.418 26.6864 42.7153 31.2365 43.8562 37.3228C44.3604 40.1456 44.6172 43.0077 44.6237 45.8758C44.7118 55.6741 44.6576 65.4724 44.6576 75.2708C44.6576 76.9403 44.3824 77.4706 42.7797 77.6002C40.7951 77.7502 38.8015 77.7307 36.8201 77.5421C35.4618 77.419 35.1969 76.9195 35.1969 75.5343V47.3706C35.1969 44.6337 35.0848 41.9242 34.3445 39.2556C31.9404 30.5591 23.4305 29.9499 18.2519 33.0119C14.9002 34.9962 12.2245 37.7399 9.76249 40.7027C9.50442 41.0175 9.48405 41.5957 9.48405 42.0712C9.4682 53.0988 9.46141 64.1253 9.46368 75.1507C9.46368 77.0253 9.16146 77.5455 7.3176 77.6481C5.32929 77.7129 3.3389 77.6512 1.35831 77.4632C0.417721 77.3985 0 76.7383 0 75.753C0.0135791 59.2629 0.0135791 42.7727 0 26.2826C0 25.2562 0.448219 24.5481 1.40587 24.4865C3.29037 24.3611 5.1806 24.3486 7.06658 24.4489C8.0446 24.5037 8.56075 25.2119 8.53355 26.3067C8.4894 28.2703 8.5166 30.2409 8.5166 32.4168Z" fill="#FE0000"/>
<path d="M160.138 38.9031V75.3594C160.138 76.9263 159.88 77.436 158.372 77.5489C156.32 77.6903 154.261 77.6709 152.212 77.4908C150.949 77.3882 150.681 76.8784 150.681 75.6262V2.09803C150.681 0.729552 151.058 0.175372 152.446 0.0902934C154.436 -0.0294468 156.43 -0.0294468 158.42 0.0902934C159.747 0.168939 160.141 0.774587 160.141 2.14306L160.138 38.9031Z" fill="#FE0000"/>
<path d="M63.1242 56.3C60.6114 58.7154 58.4686 61.0897 57.3514 64.1379C56.2953 66.9912 55.9727 69.9711 56.8149 72.9786C56.9643 73.5055 56.9778 74.005 56.3497 74.0734C56.1086 74.1008 55.6468 73.7039 55.5823 73.4301C54.9554 70.7916 55.0033 68.036 55.7216 65.4213C56.4739 62.7258 57.8734 60.2583 59.7965 58.2368C60.7609 57.2105 61.9019 56.3689 62.8968 55.3768C63.172 55.0467 63.3192 54.6274 63.3111 54.1964C63.2772 52.2532 63.1855 50.31 63.0938 48.3804C62.804 42.3455 62.512 36.3105 62.2177 30.2755C61.9053 23.9372 61.5861 17.5966 61.2599 11.2538C61.1953 9.95661 60.9201 9.85777 59.7793 10.4047C56.2885 12.0743 52.7195 13.5077 48.7703 13.631C48.2292 13.6343 47.7021 13.8038 47.2592 14.1168C44.909 16.0021 42.2896 17.5189 39.4896 18.6157C36.4707 19.8337 33.3771 20.6478 30.1207 20.5828C28.4432 20.552 26.769 20.186 25.1052 19.8986C24.881 19.8575 24.7384 19.3375 24.5547 19.0399C24.8535 18.9235 25.1897 18.6464 25.4444 18.6978C29.4845 19.7256 33.7447 19.4271 37.6047 17.8459C39.9817 16.8948 42.2569 15.711 44.563 14.5991C45.0824 14.2838 45.5773 13.9293 46.0435 13.5386C45.1606 13.1282 44.4581 12.786 43.7412 12.4677C41.5408 11.4996 39.8056 9.28596 40.0262 6.57984C40.1892 4.62635 41.6868 2.59077 43.5544 1.992C45.3474 1.41387 47.3406 2.11169 48.7024 3.5658C49.5989 4.57131 50.1637 5.83231 50.3189 7.17489C50.4741 8.51747 50.212 9.87548 49.5687 11.0616C49.4359 11.3892 49.3534 11.7354 49.3242 12.088C49.6637 12.1565 50.0543 12.3583 50.3599 12.2766C52.2854 11.7663 54.2107 11.2502 56.1056 10.6276C57.4198 10.2 58.666 9.5636 59.9767 9.11902C60.8155 8.83161 61.1548 8.404 61.1076 7.48022C61.0328 5.99882 60.8903 4.50378 61.712 3.0977C61.9829 2.60275 62.3837 2.19245 62.8705 1.91174C63.3574 1.63103 63.9116 1.49075 64.4724 1.50627C65.6405 1.47543 66.7747 1.87919 67.2365 3.04235C67.6409 4.1083 67.8925 5.22686 67.9836 6.36432C68.0685 7.31194 68.2723 7.73279 69.3419 7.79436C73.213 7.97183 76.6937 9.40576 80.0047 11.3524C82.3608 12.692 84.3934 14.5403 85.9569 16.7647C88.2592 20.0936 88.8536 23.8124 88.4122 27.7673C87.7839 33.4397 85.0163 38.0309 80.8599 41.6676C76.9954 45.058 72.8697 48.1678 68.7132 51.1785C67.6945 51.9209 67.4636 52.588 67.4533 53.6451C67.3286 69.7931 67.1939 85.9423 67.0493 102.093C67.0493 104.07 67.0017 106.051 66.9236 108.032C66.9236 108.374 66.635 108.675 66.4788 109C66.2887 108.675 65.9524 108.357 65.9355 108.021C65.7593 104.751 65.6571 101.473 65.4907 98.2026C64.8975 86.3037 64.2942 74.4071 63.6807 62.5128C63.5959 60.8432 63.5245 59.1739 63.4193 57.5042C63.3531 57.0955 63.2544 56.6928 63.1242 56.3ZM67.5965 50.3785C68.3843 49.8859 68.9548 49.5745 69.4743 49.1947C72.3098 47.1043 75.2132 45.0893 77.9333 42.872C81.0549 40.3603 83.5844 37.182 85.3394 33.5663C86.3334 31.5963 86.9999 29.4754 87.3124 27.288C87.7615 23.8364 86.9137 20.3403 84.9353 17.4863C83.3084 14.9964 81.0298 13.0084 78.3513 11.742C75.6113 10.4043 72.6784 9.51173 69.6615 9.0975C68.0621 8.90593 67.9976 8.86456 67.9806 10.4934C67.8513 21.9227 67.7244 33.3542 67.5999 44.7879C67.5761 46.5294 67.5965 48.2398 67.5965 50.3785ZM45.0417 3.19975C44.1886 3.13841 43.3433 3.39951 42.6709 3.93211C41.9985 4.46471 41.5471 5.2306 41.4049 6.08035C40.8004 8.86178 43.9517 12.4403 46.7974 12.1735C46.9616 12.1571 47.1209 12.1074 47.2656 12.0274C47.4103 11.9475 47.5375 11.8389 47.6396 11.7082C48.644 10.1148 49.0521 8.21295 48.7908 6.3438C48.6793 5.43796 48.2297 4.60884 47.5334 4.02487C46.8371 3.4409 45.9463 3.14589 45.0418 3.19975H45.0417ZM63.3789 12.047V13.98C63.3789 14.7429 63.6335 15.3689 64.5063 15.3484C65.379 15.3279 65.6371 14.7189 65.6507 13.9594V10.5997C65.6507 9.15939 65.6507 9.20043 64.2924 9.20387C63.6131 9.20387 63.3755 9.4844 63.3755 10.1003L63.3789 12.047ZM63.4807 8.38647C64.3771 7.97605 65.2634 7.85281 65.5352 7.36009C65.8578 6.78871 65.654 5.91296 65.6783 5.17055C65.6817 5.1033 65.6817 5.03591 65.6783 4.96866C65.6511 4.33229 65.2402 3.98676 64.6936 4.07916C64.2691 4.15104 63.5831 4.48958 63.5492 4.76334C63.4541 5.9685 63.428 7.17818 63.4711 8.38636L63.4807 8.38647Z" fill="black"/>
</svg>
