<svg width="595" height="130" viewBox="0 0 595 130" fill="none" xmlns="http://www.w3.org/2000/svg">
<path fill-rule="evenodd" clip-rule="evenodd" d="M384.503 31.9511C375.224 22.26 366.103 13.996 354.393 9.68737C343.432 5.6144 331.985 4.37025 320.431 7.61819C318.407 8.1944 316.488 8.24663 316.225 5.82416C316.12 4.89424 317.645 3.11337 318.697 2.86454C328.833 0.446677 339.418 0.631506 349.463 3.4017C359.818 6.30315 369.296 11.7006 377.062 19.1174C381.005 22.8366 384.238 27.237 388.049 31.0743C389.317 32.1357 390.928 32.7034 392.583 32.6722C400.048 32.5414 407.513 32.1877 414.926 31.8339C438.109 30.7163 461.293 29.5901 484.476 28.4552C508.825 27.2504 533.182 26.019 557.549 24.761C562.532 24.5122 562.911 23.4507 560.81 19.0512L555.266 5.77415C554.505 3.33488 553.44 -1.17776 555.266 0.285798C555.266 1.7494 558.391 3.96029 559.954 4.88279C561.597 9.95107 564.041 14.7574 565.749 19.8125C566.853 23.0473 568.496 24.3559 572.045 24.1738C577.736 23.8855 583.479 23.3356 588.88 26.505C590.782 27.5494 592.358 29.0952 593.436 30.9729C594.514 32.8507 595.053 34.988 594.994 37.1507C595.112 41.6559 593.561 46.0299 589.093 47.8112C584.998 49.3707 580.701 50.3408 576.331 50.6923C572.691 51.0196 571.074 51.8056 570.838 55.9308C570.156 70.8605 564.648 84.2845 557.17 97.0537C552.023 106.14 544.923 113.98 536.378 120.01C523.59 128.889 509.304 131.181 494.111 129.479C472.321 127.056 454.683 116.382 440.713 100.352C427.689 85.448 415.743 69.5365 404.177 53.5062C401.325 49.5772 398.762 48.6868 394.701 48.6473C332.668 48.166 124.987 47.6466 62.9453 47.0889C55.3489 47.0889 11.3284 46.9055 3.71916 46.6044C2.40501 46.6044 1.24768 45.491 1.94032e-06 44.8889C1.24853 44.1556 2.47146 42.8588 3.75877 42.7934C16.3229 42.114 65.3244 41.7196 77.8889 41.078C123.599 38.7904 314.944 36.4636 360.636 34.0976C367.05 33.7702 373.462 33.4951 379.877 33.0891C381.447 32.8339 382.994 32.4533 384.503 31.9511ZM411.798 56.4416C410.339 54.4378 409.142 52.2379 407.25 49.1993C415.466 49.1993 422.036 49.1207 428.726 49.2124C472.649 49.6926 516.564 50.182 560.47 50.6808C566.727 50.7462 566.568 50.995 565.832 57.1635C564.241 68.7988 560.812 80.1098 555.673 90.6772C550.808 101.007 543.171 109.795 533.606 116.07C522.642 123.699 509.212 126.969 495.953 125.237C487.55 124.032 479.402 121.462 471.834 117.628C457.944 110.86 445.735 101.104 436.086 89.0649C427.569 78.5746 419.828 67.3769 411.798 56.4416ZM547.076 32.9333L554.501 32.9333L561.98 32.9206C564.346 32.9206 565.423 33.8369 565.423 36.4564C565.424 36.6015 565.424 36.7426 565.425 36.8798C565.441 41.695 565.441 41.695 560.061 41.695L547.155 41.695C544.237 41.6427 541.898 40.6474 541.819 37.2814C541.74 33.9155 544.145 32.9333 547.076 32.9333ZM572.506 41.2495C571.23 40.5427 570.599 38.7576 569.839 36.6096C569.473 35.5728 569.077 34.4515 568.563 33.3261L568.564 33.2891C573.205 33.123 577.852 33.2235 582.482 33.5902C583.533 33.721 584.834 36.3668 585.11 38.0037C585.465 40.112 584.138 41.6966 581.693 41.8015C581.435 41.8146 581.176 41.8146 580.917 41.8015C580.055 41.7732 579.146 41.8252 578.237 41.8772C576.138 41.9974 574.038 42.1176 572.506 41.2495Z" fill="#C9C9C9"/>
</svg>
